<?xml version="1.0" encoding="UTF-8" standalone="no"?> <svg xmlns="http://www.w3.org/2000/svg" xmlns:xlink="http://www.w3.org/1999/xlink" xmlns:serif="http://www.serif.com/" width="100%" height="100%" viewBox="0 0 79 16" xml:space="preserve" style="fill-rule:evenodd;clip-rule:evenodd;stroke-linejoin:round;stroke-miterlimit:2;"> <g transform="matrix(1,0,0,1,-4.90691,-4.74379)"> <g> <g transform="matrix(-1,0,0,1,99.0139,-239.568)"> <rect x="78.128" y="244.312" width="15.979" height="7.991" style="fill:rgb(48,105,177);"></rect> </g> <g transform="matrix(-1,0,0,1,91.0259,-223.573)"> <rect x="78.128" y="236.315" width="7.991" height="7.99" style="fill:rgb(255,192,50);"></rect> </g> <g transform="matrix(-1,0,0,1,107.005,-223.573)"> <rect x="86.119" y="236.315" width="7.988" height="7.99" style="fill:rgb(144,196,233);"></rect> </g> <g transform="matrix(1,0,0,1,29.1598,8.56639)"> <path d="M0,8.853L0,1.045L-2.974,1.045L-2.974,0L4.181,0L4.181,1.045L1.194,1.045L1.194,8.853L0,8.853Z" style="fill:rgb(48,105,177);fill-rule:nonzero;"></path> </g> <g transform="matrix(1,0,0,1,37.2009,14.2256)"> <path d="M0,-0.025C-0.402,0.136 -1.006,0.273 -1.811,0.386C-2.266,0.45 -2.588,0.523 -2.777,0.603C-2.966,0.683 -3.111,0.802 -3.214,0.956C-3.316,1.111 -3.368,1.284 -3.368,1.473C-3.368,1.763 -3.256,2.004 -3.032,2.197C-2.809,2.391 -2.481,2.487 -2.051,2.487C-1.624,2.487 -1.244,2.396 -0.911,2.212C-0.579,2.029 -0.335,1.779 -0.179,1.461C-0.06,1.215 0,0.853 0,0.373L0,-0.025ZM0.092,2.403C-0.318,2.745 -0.714,2.986 -1.093,3.127C-1.473,3.268 -1.88,3.339 -2.315,3.339C-3.033,3.339 -3.586,3.166 -3.972,2.822C-4.357,2.478 -4.55,2.038 -4.55,1.503C-4.55,1.189 -4.478,0.902 -4.332,0.642C-4.186,0.383 -3.995,0.174 -3.759,0.017C-3.523,-0.14 -3.257,-0.258 -2.962,-0.339C-2.744,-0.395 -2.416,-0.45 -1.977,-0.502C-1.082,-0.607 -0.423,-0.732 0,-0.877C0.004,-1.025 0.006,-1.12 0.006,-1.16C0.006,-1.603 -0.099,-1.915 -0.308,-2.096C-0.591,-2.342 -1.012,-2.464 -1.57,-2.464C-2.092,-2.464 -2.477,-2.375 -2.725,-2.196C-2.973,-2.017 -3.156,-1.7 -3.275,-1.245L-4.359,-1.39C-4.261,-1.844 -4.099,-2.212 -3.873,-2.492C-3.647,-2.772 -3.321,-2.987 -2.894,-3.138C-2.467,-3.289 -1.973,-3.364 -1.41,-3.364C-0.852,-3.364 -0.398,-3.3 -0.05,-3.171C0.3,-3.042 0.556,-2.88 0.72,-2.685C0.885,-2.49 0.999,-2.243 1.065,-1.945C1.102,-1.76 1.12,-1.426 1.12,-0.943L1.12,0.507C1.12,1.517 1.144,2.156 1.191,2.424C1.238,2.692 1.332,2.948 1.472,3.194L0.313,3.194C0.199,2.968 0.125,2.704 0.092,2.403" style="fill:rgb(48,105,177);fill-rule:nonzero;"></path> </g> <g transform="matrix(1,0,0,1,-73.2211,-231.06)"> <rect x="113.235" y="239.627" width="1.108" height="8.853" style="fill:rgb(48,105,177);"></rect> </g> <g transform="matrix(1,0,0,1,-73.2211,-231.06)"> <rect x="116.037" y="239.627" width="1.108" height="8.853" style="fill:rgb(48,105,177);"></rect> </g> <g transform="matrix(1,0,0,1,45.5939,11.1391)"> <path d="M0,8.75L-0.123,7.729C0.119,7.794 0.33,7.826 0.511,7.826C0.757,7.826 0.954,7.786 1.102,7.706C1.25,7.625 1.371,7.512 1.465,7.367C1.535,7.259 1.647,6.989 1.804,6.558C1.824,6.498 1.857,6.409 1.902,6.292L-0.579,-0.133L0.615,-0.133L1.977,3.581C2.152,4.052 2.311,4.547 2.45,5.066C2.577,4.567 2.729,4.08 2.906,3.605L4.304,-0.133L5.412,-0.133L2.924,6.389C2.657,7.093 2.45,7.579 2.303,7.844C2.105,8.203 1.88,8.465 1.625,8.632C1.371,8.799 1.067,8.883 0.714,8.883C0.5,8.883 0.263,8.838 0,8.75" style="fill:rgb(48,105,177);fill-rule:nonzero;"></path> </g> <g transform="matrix(1,0,0,1,53.2829,13.2108)"> <path d="M0,-0.435L2.334,-0.435C3.105,-0.435 3.653,-0.576 3.978,-0.858C4.302,-1.14 4.464,-1.536 4.464,-2.048C4.464,-2.418 4.369,-2.735 4.178,-2.998C3.987,-3.262 3.735,-3.436 3.424,-3.521C3.223,-3.573 2.851,-3.6 2.31,-3.6L0,-3.6L0,-0.435ZM-1.194,4.209L-1.194,-4.644L2.211,-4.644C2.81,-4.644 3.268,-4.616 3.584,-4.56C4.027,-4.487 4.398,-4.349 4.698,-4.146C4.998,-3.943 5.239,-3.658 5.422,-3.291C5.604,-2.925 5.695,-2.522 5.695,-2.084C5.695,-1.331 5.451,-0.694 4.963,-0.172C4.475,0.349 3.592,0.609 2.315,0.609L0,0.609L0,4.209L-1.194,4.209Z" style="fill:rgb(48,105,177);fill-rule:nonzero;"></path> </g> <g transform="matrix(1,0,0,1,60.3449,10.8614)"> <path d="M0,6.558L0,0.145L0.997,0.145L0.997,1.117C1.251,0.662 1.486,0.362 1.702,0.217C1.917,0.073 2.154,0 2.413,0C2.786,0 3.166,0.117 3.552,0.35L3.171,1.359C2.899,1.202 2.629,1.123 2.357,1.123C2.115,1.123 1.897,1.195 1.705,1.337C1.512,1.48 1.375,1.679 1.293,1.933C1.169,2.319 1.107,2.742 1.107,3.201L1.107,6.558L0,6.558Z" style="fill:rgb(48,105,177);fill-rule:nonzero;"></path> </g> <g transform="matrix(1,0,0,1,-73.2211,-231.061)"> <path d="M137.783,242.067L138.891,242.067L138.891,248.48L137.783,248.48L137.783,242.067ZM137.783,239.628L138.891,239.628L138.891,240.878L137.783,240.878L137.783,239.628Z" style="fill:rgb(48,105,177);fill-rule:nonzero;"></path> </g> <g transform="matrix(1,0,0,1,67.3579,10.8614)"> <path d="M0,6.558L0,0.145L0.991,0.145L0.991,1.045C1.196,0.731 1.47,0.478 1.811,0.287C2.151,0.096 2.539,0 2.974,0C3.458,0 3.855,0.099 4.165,0.296C4.476,0.493 4.693,0.769 4.821,1.123C5.338,0.374 6.012,0 6.841,0C7.489,0 7.988,0.176 8.337,0.528C8.686,0.881 8.86,1.423 8.86,2.156L8.86,6.558L7.758,6.558L7.758,2.518C7.758,2.083 7.722,1.77 7.65,1.579C7.578,1.388 7.448,1.234 7.259,1.117C7.07,1 6.849,0.942 6.595,0.942C6.135,0.942 5.753,1.092 5.449,1.392C5.146,1.692 4.993,2.172 4.993,2.832L4.993,6.558L3.885,6.558L3.885,2.391C3.885,1.908 3.795,1.546 3.614,1.304C3.434,1.063 3.138,0.942 2.728,0.942C2.416,0.942 2.127,1.022 1.862,1.183C1.598,1.345 1.406,1.58 1.287,1.89C1.168,2.2 1.108,2.647 1.108,3.231L1.108,6.558L0,6.558Z" style="fill:rgb(48,105,177);fill-rule:nonzero;"></path> </g> <g transform="matrix(1,0,0,1,78.6999,14.8296)"> <path d="M0,-1.233L3.65,-1.233C3.602,-1.772 3.462,-2.177 3.232,-2.446C2.879,-2.865 2.421,-3.075 1.859,-3.075C1.35,-3.075 0.922,-2.907 0.575,-2.573C0.229,-2.239 0.036,-1.792 0,-1.233M3.639,0.524L4.783,0.663C4.603,1.32 4.269,1.829 3.78,2.191C3.291,2.554 2.668,2.735 1.908,2.735C0.952,2.735 0.193,2.446 -0.367,1.868C-0.927,1.29 -1.207,0.48 -1.207,-0.563C-1.207,-1.641 -0.924,-2.479 -0.357,-3.075C0.209,-3.671 0.943,-3.968 1.847,-3.968C2.721,-3.968 3.436,-3.676 3.989,-3.093C4.544,-2.509 4.82,-1.688 4.82,-0.629C4.82,-0.565 4.818,-0.468 4.814,-0.339L-0.062,-0.339C-0.021,0.366 0.183,0.905 0.548,1.279C0.913,1.654 1.368,1.841 1.914,1.841C2.321,1.841 2.668,1.736 2.955,1.527C3.242,1.318 3.47,0.983 3.639,0.524" style="fill:rgb(48,105,177);fill-rule:nonzero;"></path> </g> </g> </g> </svg> 